<mxfile host="Electron" modified="2024-05-06T18:54:17.560Z" agent="Mozilla/5.0 (Windows NT 10.0; Win64; x64) AppleWebKit/537.36 (KHTML, like Gecko) draw.io/24.2.5 Chrome/120.0.6099.109 Electron/28.1.0 Safari/537.36" etag="qWkShTDB2LL9eFiqongI" version="24.2.5" type="device" pages="2">
  <diagram name="Use Case Diagram" id="AfJr-j_T4V_LbEpYFZ21">
    <mxGraphModel dx="1434" dy="836" grid="1" gridSize="10" guides="1" tooltips="1" connect="1" arrows="1" fold="1" page="1" pageScale="1" pageWidth="827" pageHeight="1169" math="0" shadow="0">
      <root>
        <mxCell id="0" />
        <mxCell id="1" parent="0" />
        <mxCell id="gmDNYlGTjWz8TbCOUkXH-2" value="" style="rounded=0;whiteSpace=wrap;html=1;" vertex="1" parent="1">
          <mxGeometry x="171" y="40" width="479" height="1100" as="geometry" />
        </mxCell>
        <mxCell id="gmDNYlGTjWz8TbCOUkXH-3" value="&lt;font style=&quot;font-size: 14px;&quot;&gt;&lt;b&gt;Diamond Cosmetics&lt;/b&gt;&lt;/font&gt;" style="text;html=1;align=center;verticalAlign=middle;resizable=0;points=[];autosize=1;strokeColor=none;fillColor=none;" vertex="1" parent="1">
          <mxGeometry x="334" y="40" width="160" height="30" as="geometry" />
        </mxCell>
        <mxCell id="gmDNYlGTjWz8TbCOUkXH-20" style="rounded=0;orthogonalLoop=1;jettySize=auto;html=1;entryX=0;entryY=0.5;entryDx=0;entryDy=0;endArrow=none;endFill=0;" edge="1" parent="1" source="gmDNYlGTjWz8TbCOUkXH-4" target="gmDNYlGTjWz8TbCOUkXH-7">
          <mxGeometry relative="1" as="geometry" />
        </mxCell>
        <mxCell id="gmDNYlGTjWz8TbCOUkXH-21" style="rounded=0;orthogonalLoop=1;jettySize=auto;html=1;entryX=0;entryY=0.5;entryDx=0;entryDy=0;endArrow=none;endFill=0;" edge="1" parent="1" source="gmDNYlGTjWz8TbCOUkXH-4" target="gmDNYlGTjWz8TbCOUkXH-8">
          <mxGeometry relative="1" as="geometry" />
        </mxCell>
        <mxCell id="gmDNYlGTjWz8TbCOUkXH-4" value="Customer" style="shape=umlActor;verticalLabelPosition=bottom;verticalAlign=top;html=1;" vertex="1" parent="1">
          <mxGeometry x="60" y="210" width="30" height="60" as="geometry" />
        </mxCell>
        <mxCell id="gmDNYlGTjWz8TbCOUkXH-32" style="edgeStyle=none;rounded=0;orthogonalLoop=1;jettySize=auto;html=1;entryX=0;entryY=0.5;entryDx=0;entryDy=0;endArrow=none;endFill=0;" edge="1" parent="1" source="gmDNYlGTjWz8TbCOUkXH-5" target="gmDNYlGTjWz8TbCOUkXH-9">
          <mxGeometry relative="1" as="geometry" />
        </mxCell>
        <mxCell id="gmDNYlGTjWz8TbCOUkXH-41" style="edgeStyle=none;rounded=0;orthogonalLoop=1;jettySize=auto;html=1;entryX=0;entryY=0.5;entryDx=0;entryDy=0;endArrow=none;endFill=0;" edge="1" parent="1" source="gmDNYlGTjWz8TbCOUkXH-5" target="gmDNYlGTjWz8TbCOUkXH-10">
          <mxGeometry relative="1" as="geometry" />
        </mxCell>
        <mxCell id="gmDNYlGTjWz8TbCOUkXH-52" style="rounded=0;orthogonalLoop=1;jettySize=auto;html=1;entryX=0;entryY=0.5;entryDx=0;entryDy=0;edgeStyle=orthogonalEdgeStyle;endArrow=none;endFill=0;" edge="1" parent="1" source="gmDNYlGTjWz8TbCOUkXH-5" target="gmDNYlGTjWz8TbCOUkXH-11">
          <mxGeometry relative="1" as="geometry">
            <Array as="points">
              <mxPoint x="75" y="815" />
            </Array>
          </mxGeometry>
        </mxCell>
        <mxCell id="gmDNYlGTjWz8TbCOUkXH-56" style="edgeStyle=none;rounded=0;orthogonalLoop=1;jettySize=auto;html=1;entryX=0;entryY=0.5;entryDx=0;entryDy=0;endArrow=none;endFill=0;exitX=0;exitY=0.3333333333333333;exitDx=0;exitDy=0;exitPerimeter=0;" edge="1" parent="1" source="gmDNYlGTjWz8TbCOUkXH-5" target="gmDNYlGTjWz8TbCOUkXH-55">
          <mxGeometry relative="1" as="geometry">
            <mxPoint x="60" y="530" as="sourcePoint" />
            <mxPoint x="329" y="1085" as="targetPoint" />
            <Array as="points">
              <mxPoint x="60" y="1085" />
            </Array>
          </mxGeometry>
        </mxCell>
        <mxCell id="gmDNYlGTjWz8TbCOUkXH-5" value="Admin" style="shape=umlActor;verticalLabelPosition=bottom;verticalAlign=top;html=1;" vertex="1" parent="1">
          <mxGeometry x="60" y="470" width="30" height="60" as="geometry" />
        </mxCell>
        <mxCell id="gmDNYlGTjWz8TbCOUkXH-22" style="edgeStyle=none;rounded=0;orthogonalLoop=1;jettySize=auto;html=1;entryX=1;entryY=0.5;entryDx=0;entryDy=0;endArrow=none;endFill=0;" edge="1" parent="1" source="gmDNYlGTjWz8TbCOUkXH-6" target="gmDNYlGTjWz8TbCOUkXH-7">
          <mxGeometry relative="1" as="geometry" />
        </mxCell>
        <mxCell id="gmDNYlGTjWz8TbCOUkXH-23" style="edgeStyle=none;rounded=0;orthogonalLoop=1;jettySize=auto;html=1;entryX=1;entryY=0.5;entryDx=0;entryDy=0;endArrow=none;endFill=0;" edge="1" parent="1" source="gmDNYlGTjWz8TbCOUkXH-6" target="gmDNYlGTjWz8TbCOUkXH-8">
          <mxGeometry relative="1" as="geometry" />
        </mxCell>
        <mxCell id="gmDNYlGTjWz8TbCOUkXH-28" style="edgeStyle=none;rounded=0;orthogonalLoop=1;jettySize=auto;html=1;entryX=1;entryY=0.5;entryDx=0;entryDy=0;endArrow=none;endFill=0;" edge="1" parent="1" source="gmDNYlGTjWz8TbCOUkXH-6" target="gmDNYlGTjWz8TbCOUkXH-24">
          <mxGeometry relative="1" as="geometry" />
        </mxCell>
        <mxCell id="gmDNYlGTjWz8TbCOUkXH-43" style="edgeStyle=none;rounded=0;orthogonalLoop=1;jettySize=auto;html=1;entryX=1;entryY=0.5;entryDx=0;entryDy=0;endArrow=none;endFill=0;" edge="1" parent="1" source="gmDNYlGTjWz8TbCOUkXH-6" target="gmDNYlGTjWz8TbCOUkXH-10">
          <mxGeometry relative="1" as="geometry" />
        </mxCell>
        <mxCell id="gmDNYlGTjWz8TbCOUkXH-53" style="edgeStyle=orthogonalEdgeStyle;rounded=0;orthogonalLoop=1;jettySize=auto;html=1;entryX=1;entryY=0.5;entryDx=0;entryDy=0;endArrow=none;endFill=0;" edge="1" parent="1" source="gmDNYlGTjWz8TbCOUkXH-6" target="gmDNYlGTjWz8TbCOUkXH-11">
          <mxGeometry relative="1" as="geometry">
            <Array as="points">
              <mxPoint x="775" y="815" />
            </Array>
          </mxGeometry>
        </mxCell>
        <mxCell id="gmDNYlGTjWz8TbCOUkXH-6" value="Database" style="shape=umlActor;verticalLabelPosition=bottom;verticalAlign=top;html=1;" vertex="1" parent="1">
          <mxGeometry x="760" y="390" width="30" height="60" as="geometry" />
        </mxCell>
        <mxCell id="gmDNYlGTjWz8TbCOUkXH-7" value="View all products" style="ellipse;whiteSpace=wrap;html=1;" vertex="1" parent="1">
          <mxGeometry x="344" y="100" width="140" height="70" as="geometry" />
        </mxCell>
        <mxCell id="gmDNYlGTjWz8TbCOUkXH-8" value="View single product" style="ellipse;whiteSpace=wrap;html=1;" vertex="1" parent="1">
          <mxGeometry x="344" y="200" width="140" height="70" as="geometry" />
        </mxCell>
        <mxCell id="gmDNYlGTjWz8TbCOUkXH-27" style="edgeStyle=none;rounded=0;orthogonalLoop=1;jettySize=auto;html=1;entryX=0;entryY=0.5;entryDx=0;entryDy=0;dashed=1;" edge="1" parent="1" source="gmDNYlGTjWz8TbCOUkXH-9" target="gmDNYlGTjWz8TbCOUkXH-24">
          <mxGeometry relative="1" as="geometry" />
        </mxCell>
        <mxCell id="gmDNYlGTjWz8TbCOUkXH-29" value="&amp;lt;&amp;lt;include&amp;gt;&amp;gt;" style="edgeLabel;html=1;align=center;verticalAlign=middle;resizable=0;points=[];" vertex="1" connectable="0" parent="gmDNYlGTjWz8TbCOUkXH-27">
          <mxGeometry x="-0.0861" y="2" relative="1" as="geometry">
            <mxPoint y="-1" as="offset" />
          </mxGeometry>
        </mxCell>
        <mxCell id="gmDNYlGTjWz8TbCOUkXH-9" value="Log in&lt;span style=&quot;color: rgba(0, 0, 0, 0); font-family: monospace; font-size: 0px; text-align: start; text-wrap: nowrap;&quot;&gt;%3CmxGraphModel%3E%3Croot%3E%3CmxCell%20id%3D%220%22%2F%3E%3CmxCell%20id%3D%221%22%20parent%3D%220%22%2F%3E%3CmxCell%20id%3D%222%22%20value%3D%22View%20all%20products%22%20style%3D%22ellipse%3BwhiteSpace%3Dwrap%3Bhtml%3D1%3B%22%20vertex%3D%221%22%20parent%3D%221%22%3E%3CmxGeometry%20x%3D%22344%22%20y%3D%2290%22%20width%3D%22140%22%20height%3D%2270%22%20as%3D%22geometry%22%2F%3E%3C%2FmxCell%3E%3C%2Froot%3E%3C%2FmxGraphModel%3E&lt;/span&gt;" style="ellipse;whiteSpace=wrap;html=1;" vertex="1" parent="1">
          <mxGeometry x="220" y="360" width="140" height="70" as="geometry" />
        </mxCell>
        <mxCell id="gmDNYlGTjWz8TbCOUkXH-10" value="Manage products (CRUD)" style="ellipse;whiteSpace=wrap;html=1;" vertex="1" parent="1">
          <mxGeometry x="344" y="500" width="140" height="70" as="geometry" />
        </mxCell>
        <mxCell id="gmDNYlGTjWz8TbCOUkXH-11" value="Manage users (CRUD)" style="ellipse;whiteSpace=wrap;html=1;" vertex="1" parent="1">
          <mxGeometry x="344" y="780" width="140" height="70" as="geometry" />
        </mxCell>
        <mxCell id="gmDNYlGTjWz8TbCOUkXH-24" value="Verify password" style="ellipse;whiteSpace=wrap;html=1;" vertex="1" parent="1">
          <mxGeometry x="460" y="310" width="140" height="70" as="geometry" />
        </mxCell>
        <mxCell id="gmDNYlGTjWz8TbCOUkXH-30" style="edgeStyle=none;rounded=0;orthogonalLoop=1;jettySize=auto;html=1;entryX=1;entryY=1;entryDx=0;entryDy=0;dashed=1;" edge="1" parent="1" source="gmDNYlGTjWz8TbCOUkXH-25" target="gmDNYlGTjWz8TbCOUkXH-9">
          <mxGeometry relative="1" as="geometry" />
        </mxCell>
        <mxCell id="gmDNYlGTjWz8TbCOUkXH-31" value="&amp;lt;&amp;lt;extend&amp;gt;&amp;gt;" style="edgeLabel;html=1;align=center;verticalAlign=middle;resizable=0;points=[];" vertex="1" connectable="0" parent="gmDNYlGTjWz8TbCOUkXH-30">
          <mxGeometry x="-0.0018" relative="1" as="geometry">
            <mxPoint as="offset" />
          </mxGeometry>
        </mxCell>
        <mxCell id="gmDNYlGTjWz8TbCOUkXH-25" value="Display login error" style="ellipse;whiteSpace=wrap;html=1;" vertex="1" parent="1">
          <mxGeometry x="460" y="410" width="140" height="70" as="geometry" />
        </mxCell>
        <mxCell id="gmDNYlGTjWz8TbCOUkXH-37" style="edgeStyle=orthogonalEdgeStyle;rounded=0;orthogonalLoop=1;jettySize=auto;html=1;entryX=0.5;entryY=1;entryDx=0;entryDy=0;" edge="1" parent="1" source="gmDNYlGTjWz8TbCOUkXH-33" target="gmDNYlGTjWz8TbCOUkXH-10">
          <mxGeometry relative="1" as="geometry">
            <Array as="points">
              <mxPoint x="230" y="600" />
              <mxPoint x="414" y="600" />
            </Array>
          </mxGeometry>
        </mxCell>
        <mxCell id="gmDNYlGTjWz8TbCOUkXH-33" value="Create product" style="ellipse;whiteSpace=wrap;html=1;" vertex="1" parent="1">
          <mxGeometry x="180" y="641.25" width="100" height="45" as="geometry" />
        </mxCell>
        <mxCell id="gmDNYlGTjWz8TbCOUkXH-38" style="edgeStyle=orthogonalEdgeStyle;rounded=0;orthogonalLoop=1;jettySize=auto;html=1;entryX=0.5;entryY=1;entryDx=0;entryDy=0;" edge="1" parent="1" source="gmDNYlGTjWz8TbCOUkXH-34" target="gmDNYlGTjWz8TbCOUkXH-10">
          <mxGeometry relative="1" as="geometry">
            <Array as="points">
              <mxPoint x="355" y="600" />
              <mxPoint x="414" y="600" />
            </Array>
          </mxGeometry>
        </mxCell>
        <mxCell id="gmDNYlGTjWz8TbCOUkXH-34" value="Retrieve product" style="ellipse;whiteSpace=wrap;html=1;" vertex="1" parent="1">
          <mxGeometry x="300" y="643.75" width="110" height="42.5" as="geometry" />
        </mxCell>
        <mxCell id="gmDNYlGTjWz8TbCOUkXH-39" style="edgeStyle=orthogonalEdgeStyle;rounded=0;orthogonalLoop=1;jettySize=auto;html=1;entryX=0.5;entryY=1;entryDx=0;entryDy=0;" edge="1" parent="1" source="gmDNYlGTjWz8TbCOUkXH-35" target="gmDNYlGTjWz8TbCOUkXH-10">
          <mxGeometry relative="1" as="geometry">
            <Array as="points">
              <mxPoint x="475" y="600" />
              <mxPoint x="414" y="600" />
            </Array>
          </mxGeometry>
        </mxCell>
        <mxCell id="gmDNYlGTjWz8TbCOUkXH-35" value="Edit product" style="ellipse;whiteSpace=wrap;html=1;" vertex="1" parent="1">
          <mxGeometry x="430" y="643.75" width="90" height="40" as="geometry" />
        </mxCell>
        <mxCell id="gmDNYlGTjWz8TbCOUkXH-40" style="edgeStyle=orthogonalEdgeStyle;rounded=0;orthogonalLoop=1;jettySize=auto;html=1;entryX=0.5;entryY=1;entryDx=0;entryDy=0;" edge="1" parent="1" source="gmDNYlGTjWz8TbCOUkXH-36" target="gmDNYlGTjWz8TbCOUkXH-10">
          <mxGeometry relative="1" as="geometry">
            <Array as="points">
              <mxPoint x="585" y="600" />
              <mxPoint x="414" y="600" />
            </Array>
          </mxGeometry>
        </mxCell>
        <mxCell id="gmDNYlGTjWz8TbCOUkXH-36" value="Delete product" style="ellipse;whiteSpace=wrap;html=1;" vertex="1" parent="1">
          <mxGeometry x="540" y="643.75" width="90" height="43.75" as="geometry" />
        </mxCell>
        <mxCell id="gmDNYlGTjWz8TbCOUkXH-44" style="edgeStyle=orthogonalEdgeStyle;rounded=0;orthogonalLoop=1;jettySize=auto;html=1;entryX=0.5;entryY=1;entryDx=0;entryDy=0;" edge="1" parent="1" source="gmDNYlGTjWz8TbCOUkXH-45">
          <mxGeometry relative="1" as="geometry">
            <mxPoint x="414" y="850" as="targetPoint" />
            <Array as="points">
              <mxPoint x="230" y="880" />
              <mxPoint x="414" y="880" />
            </Array>
          </mxGeometry>
        </mxCell>
        <mxCell id="gmDNYlGTjWz8TbCOUkXH-45" value="Create user" style="ellipse;whiteSpace=wrap;html=1;" vertex="1" parent="1">
          <mxGeometry x="180" y="921.25" width="100" height="45" as="geometry" />
        </mxCell>
        <mxCell id="gmDNYlGTjWz8TbCOUkXH-46" style="edgeStyle=orthogonalEdgeStyle;rounded=0;orthogonalLoop=1;jettySize=auto;html=1;entryX=0.5;entryY=1;entryDx=0;entryDy=0;" edge="1" parent="1" source="gmDNYlGTjWz8TbCOUkXH-47">
          <mxGeometry relative="1" as="geometry">
            <mxPoint x="414" y="850" as="targetPoint" />
            <Array as="points">
              <mxPoint x="355" y="880" />
              <mxPoint x="414" y="880" />
            </Array>
          </mxGeometry>
        </mxCell>
        <mxCell id="gmDNYlGTjWz8TbCOUkXH-47" value="Retrieve user" style="ellipse;whiteSpace=wrap;html=1;" vertex="1" parent="1">
          <mxGeometry x="300" y="923.75" width="110" height="42.5" as="geometry" />
        </mxCell>
        <mxCell id="gmDNYlGTjWz8TbCOUkXH-48" style="edgeStyle=orthogonalEdgeStyle;rounded=0;orthogonalLoop=1;jettySize=auto;html=1;entryX=0.5;entryY=1;entryDx=0;entryDy=0;" edge="1" parent="1" source="gmDNYlGTjWz8TbCOUkXH-49">
          <mxGeometry relative="1" as="geometry">
            <mxPoint x="414" y="850" as="targetPoint" />
            <Array as="points">
              <mxPoint x="475" y="880" />
              <mxPoint x="414" y="880" />
            </Array>
          </mxGeometry>
        </mxCell>
        <mxCell id="gmDNYlGTjWz8TbCOUkXH-49" value="Edit user" style="ellipse;whiteSpace=wrap;html=1;" vertex="1" parent="1">
          <mxGeometry x="430" y="923.75" width="90" height="40" as="geometry" />
        </mxCell>
        <mxCell id="gmDNYlGTjWz8TbCOUkXH-50" style="edgeStyle=orthogonalEdgeStyle;rounded=0;orthogonalLoop=1;jettySize=auto;html=1;entryX=0.5;entryY=1;entryDx=0;entryDy=0;" edge="1" parent="1" source="gmDNYlGTjWz8TbCOUkXH-51">
          <mxGeometry relative="1" as="geometry">
            <mxPoint x="414" y="850" as="targetPoint" />
            <Array as="points">
              <mxPoint x="585" y="880" />
              <mxPoint x="414" y="880" />
            </Array>
          </mxGeometry>
        </mxCell>
        <mxCell id="gmDNYlGTjWz8TbCOUkXH-51" value="Delete user" style="ellipse;whiteSpace=wrap;html=1;" vertex="1" parent="1">
          <mxGeometry x="540" y="923.75" width="90" height="43.75" as="geometry" />
        </mxCell>
        <mxCell id="gmDNYlGTjWz8TbCOUkXH-55" value="Log out" style="ellipse;whiteSpace=wrap;html=1;" vertex="1" parent="1">
          <mxGeometry x="344" y="1050" width="140" height="70" as="geometry" />
        </mxCell>
      </root>
    </mxGraphModel>
  </diagram>
  <diagram id="cNnk-d4sOS1yR-PaBj7G" name="ER Diagram">
    <mxGraphModel dx="1434" dy="836" grid="1" gridSize="10" guides="1" tooltips="1" connect="1" arrows="1" fold="1" page="1" pageScale="1" pageWidth="827" pageHeight="1169" math="0" shadow="0">
      <root>
        <mxCell id="0" />
        <mxCell id="1" parent="0" />
        <mxCell id="C8jW-1V1t6mfTePuLyIO-98" style="edgeStyle=orthogonalEdgeStyle;rounded=0;orthogonalLoop=1;jettySize=auto;html=1;entryX=0;entryY=0.5;entryDx=0;entryDy=0;exitX=1;exitY=0.5;exitDx=0;exitDy=0;startArrow=ERone;startFill=0;endArrow=ERzeroToMany;endFill=0;" edge="1" parent="1" source="C8jW-1V1t6mfTePuLyIO-27" target="C8jW-1V1t6mfTePuLyIO-68">
          <mxGeometry relative="1" as="geometry" />
        </mxCell>
        <mxCell id="C8jW-1V1t6mfTePuLyIO-26" value="Category" style="shape=table;startSize=30;container=1;collapsible=1;childLayout=tableLayout;fixedRows=1;rowLines=0;fontStyle=1;align=center;resizeLast=1;html=1;" vertex="1" parent="1">
          <mxGeometry x="100" y="80" width="180" height="120" as="geometry" />
        </mxCell>
        <mxCell id="C8jW-1V1t6mfTePuLyIO-27" value="" style="shape=tableRow;horizontal=0;startSize=0;swimlaneHead=0;swimlaneBody=0;fillColor=none;collapsible=0;dropTarget=0;points=[[0,0.5],[1,0.5]];portConstraint=eastwest;top=0;left=0;right=0;bottom=1;" vertex="1" parent="C8jW-1V1t6mfTePuLyIO-26">
          <mxGeometry y="30" width="180" height="30" as="geometry" />
        </mxCell>
        <mxCell id="C8jW-1V1t6mfTePuLyIO-28" value="PK" style="shape=partialRectangle;connectable=0;fillColor=none;top=0;left=0;bottom=0;right=0;fontStyle=1;overflow=hidden;whiteSpace=wrap;html=1;" vertex="1" parent="C8jW-1V1t6mfTePuLyIO-27">
          <mxGeometry width="30" height="30" as="geometry">
            <mxRectangle width="30" height="30" as="alternateBounds" />
          </mxGeometry>
        </mxCell>
        <mxCell id="C8jW-1V1t6mfTePuLyIO-29" value="ID" style="shape=partialRectangle;connectable=0;fillColor=none;top=0;left=0;bottom=0;right=0;align=left;spacingLeft=6;fontStyle=5;overflow=hidden;whiteSpace=wrap;html=1;" vertex="1" parent="C8jW-1V1t6mfTePuLyIO-27">
          <mxGeometry x="30" width="150" height="30" as="geometry">
            <mxRectangle width="150" height="30" as="alternateBounds" />
          </mxGeometry>
        </mxCell>
        <mxCell id="C8jW-1V1t6mfTePuLyIO-30" value="" style="shape=tableRow;horizontal=0;startSize=0;swimlaneHead=0;swimlaneBody=0;fillColor=none;collapsible=0;dropTarget=0;points=[[0,0.5],[1,0.5]];portConstraint=eastwest;top=0;left=0;right=0;bottom=0;" vertex="1" parent="C8jW-1V1t6mfTePuLyIO-26">
          <mxGeometry y="60" width="180" height="30" as="geometry" />
        </mxCell>
        <mxCell id="C8jW-1V1t6mfTePuLyIO-31" value="" style="shape=partialRectangle;connectable=0;fillColor=none;top=0;left=0;bottom=0;right=0;editable=1;overflow=hidden;whiteSpace=wrap;html=1;" vertex="1" parent="C8jW-1V1t6mfTePuLyIO-30">
          <mxGeometry width="30" height="30" as="geometry">
            <mxRectangle width="30" height="30" as="alternateBounds" />
          </mxGeometry>
        </mxCell>
        <mxCell id="C8jW-1V1t6mfTePuLyIO-32" value="name" style="shape=partialRectangle;connectable=0;fillColor=none;top=0;left=0;bottom=0;right=0;align=left;spacingLeft=6;overflow=hidden;whiteSpace=wrap;html=1;" vertex="1" parent="C8jW-1V1t6mfTePuLyIO-30">
          <mxGeometry x="30" width="150" height="30" as="geometry">
            <mxRectangle width="150" height="30" as="alternateBounds" />
          </mxGeometry>
        </mxCell>
        <mxCell id="C8jW-1V1t6mfTePuLyIO-33" value="" style="shape=tableRow;horizontal=0;startSize=0;swimlaneHead=0;swimlaneBody=0;fillColor=none;collapsible=0;dropTarget=0;points=[[0,0.5],[1,0.5]];portConstraint=eastwest;top=0;left=0;right=0;bottom=0;" vertex="1" parent="C8jW-1V1t6mfTePuLyIO-26">
          <mxGeometry y="90" width="180" height="30" as="geometry" />
        </mxCell>
        <mxCell id="C8jW-1V1t6mfTePuLyIO-34" value="" style="shape=partialRectangle;connectable=0;fillColor=none;top=0;left=0;bottom=0;right=0;editable=1;overflow=hidden;whiteSpace=wrap;html=1;" vertex="1" parent="C8jW-1V1t6mfTePuLyIO-33">
          <mxGeometry width="30" height="30" as="geometry">
            <mxRectangle width="30" height="30" as="alternateBounds" />
          </mxGeometry>
        </mxCell>
        <mxCell id="C8jW-1V1t6mfTePuLyIO-35" value="status" style="shape=partialRectangle;connectable=0;fillColor=none;top=0;left=0;bottom=0;right=0;align=left;spacingLeft=6;overflow=hidden;whiteSpace=wrap;html=1;" vertex="1" parent="C8jW-1V1t6mfTePuLyIO-33">
          <mxGeometry x="30" width="150" height="30" as="geometry">
            <mxRectangle width="150" height="30" as="alternateBounds" />
          </mxGeometry>
        </mxCell>
        <mxCell id="C8jW-1V1t6mfTePuLyIO-64" value="Product" style="shape=table;startSize=30;container=1;collapsible=1;childLayout=tableLayout;fixedRows=1;rowLines=0;fontStyle=1;align=center;resizeLast=1;html=1;whiteSpace=wrap;" vertex="1" parent="1">
          <mxGeometry x="520" y="80" width="180" height="330" as="geometry" />
        </mxCell>
        <mxCell id="C8jW-1V1t6mfTePuLyIO-65" value="" style="shape=tableRow;horizontal=0;startSize=0;swimlaneHead=0;swimlaneBody=0;fillColor=none;collapsible=0;dropTarget=0;points=[[0,0.5],[1,0.5]];portConstraint=eastwest;top=0;left=0;right=0;bottom=0;html=1;" vertex="1" parent="C8jW-1V1t6mfTePuLyIO-64">
          <mxGeometry y="30" width="180" height="30" as="geometry" />
        </mxCell>
        <mxCell id="C8jW-1V1t6mfTePuLyIO-66" value="PK" style="shape=partialRectangle;connectable=0;fillColor=none;top=0;left=0;bottom=0;right=0;fontStyle=1;overflow=hidden;html=1;whiteSpace=wrap;" vertex="1" parent="C8jW-1V1t6mfTePuLyIO-65">
          <mxGeometry width="60" height="30" as="geometry">
            <mxRectangle width="60" height="30" as="alternateBounds" />
          </mxGeometry>
        </mxCell>
        <mxCell id="C8jW-1V1t6mfTePuLyIO-67" value="ID" style="shape=partialRectangle;connectable=0;fillColor=none;top=0;left=0;bottom=0;right=0;align=left;spacingLeft=6;fontStyle=5;overflow=hidden;html=1;whiteSpace=wrap;" vertex="1" parent="C8jW-1V1t6mfTePuLyIO-65">
          <mxGeometry x="60" width="120" height="30" as="geometry">
            <mxRectangle width="120" height="30" as="alternateBounds" />
          </mxGeometry>
        </mxCell>
        <mxCell id="C8jW-1V1t6mfTePuLyIO-68" value="" style="shape=tableRow;horizontal=0;startSize=0;swimlaneHead=0;swimlaneBody=0;fillColor=none;collapsible=0;dropTarget=0;points=[[0,0.5],[1,0.5]];portConstraint=eastwest;top=0;left=0;right=0;bottom=1;html=1;" vertex="1" parent="C8jW-1V1t6mfTePuLyIO-64">
          <mxGeometry y="60" width="180" height="30" as="geometry" />
        </mxCell>
        <mxCell id="C8jW-1V1t6mfTePuLyIO-69" value="FK" style="shape=partialRectangle;connectable=0;fillColor=none;top=0;left=0;bottom=0;right=0;fontStyle=1;overflow=hidden;html=1;whiteSpace=wrap;" vertex="1" parent="C8jW-1V1t6mfTePuLyIO-68">
          <mxGeometry width="60" height="30" as="geometry">
            <mxRectangle width="60" height="30" as="alternateBounds" />
          </mxGeometry>
        </mxCell>
        <mxCell id="C8jW-1V1t6mfTePuLyIO-70" value="category_id" style="shape=partialRectangle;connectable=0;fillColor=none;top=0;left=0;bottom=0;right=0;align=left;spacingLeft=6;fontStyle=5;overflow=hidden;html=1;whiteSpace=wrap;" vertex="1" parent="C8jW-1V1t6mfTePuLyIO-68">
          <mxGeometry x="60" width="120" height="30" as="geometry">
            <mxRectangle width="120" height="30" as="alternateBounds" />
          </mxGeometry>
        </mxCell>
        <mxCell id="C8jW-1V1t6mfTePuLyIO-71" value="" style="shape=tableRow;horizontal=0;startSize=0;swimlaneHead=0;swimlaneBody=0;fillColor=none;collapsible=0;dropTarget=0;points=[[0,0.5],[1,0.5]];portConstraint=eastwest;top=0;left=0;right=0;bottom=0;html=1;" vertex="1" parent="C8jW-1V1t6mfTePuLyIO-64">
          <mxGeometry y="90" width="180" height="30" as="geometry" />
        </mxCell>
        <mxCell id="C8jW-1V1t6mfTePuLyIO-72" value="" style="shape=partialRectangle;connectable=0;fillColor=none;top=0;left=0;bottom=0;right=0;editable=1;overflow=hidden;html=1;whiteSpace=wrap;" vertex="1" parent="C8jW-1V1t6mfTePuLyIO-71">
          <mxGeometry width="60" height="30" as="geometry">
            <mxRectangle width="60" height="30" as="alternateBounds" />
          </mxGeometry>
        </mxCell>
        <mxCell id="C8jW-1V1t6mfTePuLyIO-73" value="product_id" style="shape=partialRectangle;connectable=0;fillColor=none;top=0;left=0;bottom=0;right=0;align=left;spacingLeft=6;overflow=hidden;html=1;whiteSpace=wrap;" vertex="1" parent="C8jW-1V1t6mfTePuLyIO-71">
          <mxGeometry x="60" width="120" height="30" as="geometry">
            <mxRectangle width="120" height="30" as="alternateBounds" />
          </mxGeometry>
        </mxCell>
        <mxCell id="C8jW-1V1t6mfTePuLyIO-74" value="" style="shape=tableRow;horizontal=0;startSize=0;swimlaneHead=0;swimlaneBody=0;fillColor=none;collapsible=0;dropTarget=0;points=[[0,0.5],[1,0.5]];portConstraint=eastwest;top=0;left=0;right=0;bottom=0;html=1;" vertex="1" parent="C8jW-1V1t6mfTePuLyIO-64">
          <mxGeometry y="120" width="180" height="30" as="geometry" />
        </mxCell>
        <mxCell id="C8jW-1V1t6mfTePuLyIO-75" value="" style="shape=partialRectangle;connectable=0;fillColor=none;top=0;left=0;bottom=0;right=0;editable=1;overflow=hidden;html=1;whiteSpace=wrap;" vertex="1" parent="C8jW-1V1t6mfTePuLyIO-74">
          <mxGeometry width="60" height="30" as="geometry">
            <mxRectangle width="60" height="30" as="alternateBounds" />
          </mxGeometry>
        </mxCell>
        <mxCell id="C8jW-1V1t6mfTePuLyIO-76" value="name" style="shape=partialRectangle;connectable=0;fillColor=none;top=0;left=0;bottom=0;right=0;align=left;spacingLeft=6;overflow=hidden;html=1;whiteSpace=wrap;" vertex="1" parent="C8jW-1V1t6mfTePuLyIO-74">
          <mxGeometry x="60" width="120" height="30" as="geometry">
            <mxRectangle width="120" height="30" as="alternateBounds" />
          </mxGeometry>
        </mxCell>
        <mxCell id="C8jW-1V1t6mfTePuLyIO-95" style="shape=tableRow;horizontal=0;startSize=0;swimlaneHead=0;swimlaneBody=0;fillColor=none;collapsible=0;dropTarget=0;points=[[0,0.5],[1,0.5]];portConstraint=eastwest;top=0;left=0;right=0;bottom=0;html=1;" vertex="1" parent="C8jW-1V1t6mfTePuLyIO-64">
          <mxGeometry y="150" width="180" height="30" as="geometry" />
        </mxCell>
        <mxCell id="C8jW-1V1t6mfTePuLyIO-96" style="shape=partialRectangle;connectable=0;fillColor=none;top=0;left=0;bottom=0;right=0;editable=1;overflow=hidden;html=1;whiteSpace=wrap;" vertex="1" parent="C8jW-1V1t6mfTePuLyIO-95">
          <mxGeometry width="60" height="30" as="geometry">
            <mxRectangle width="60" height="30" as="alternateBounds" />
          </mxGeometry>
        </mxCell>
        <mxCell id="C8jW-1V1t6mfTePuLyIO-97" value="description" style="shape=partialRectangle;connectable=0;fillColor=none;top=0;left=0;bottom=0;right=0;align=left;spacingLeft=6;overflow=hidden;html=1;whiteSpace=wrap;" vertex="1" parent="C8jW-1V1t6mfTePuLyIO-95">
          <mxGeometry x="60" width="120" height="30" as="geometry">
            <mxRectangle width="120" height="30" as="alternateBounds" />
          </mxGeometry>
        </mxCell>
        <mxCell id="C8jW-1V1t6mfTePuLyIO-92" style="shape=tableRow;horizontal=0;startSize=0;swimlaneHead=0;swimlaneBody=0;fillColor=none;collapsible=0;dropTarget=0;points=[[0,0.5],[1,0.5]];portConstraint=eastwest;top=0;left=0;right=0;bottom=0;html=1;" vertex="1" parent="C8jW-1V1t6mfTePuLyIO-64">
          <mxGeometry y="180" width="180" height="30" as="geometry" />
        </mxCell>
        <mxCell id="C8jW-1V1t6mfTePuLyIO-93" style="shape=partialRectangle;connectable=0;fillColor=none;top=0;left=0;bottom=0;right=0;editable=1;overflow=hidden;html=1;whiteSpace=wrap;" vertex="1" parent="C8jW-1V1t6mfTePuLyIO-92">
          <mxGeometry width="60" height="30" as="geometry">
            <mxRectangle width="60" height="30" as="alternateBounds" />
          </mxGeometry>
        </mxCell>
        <mxCell id="C8jW-1V1t6mfTePuLyIO-94" value="directions" style="shape=partialRectangle;connectable=0;fillColor=none;top=0;left=0;bottom=0;right=0;align=left;spacingLeft=6;overflow=hidden;html=1;whiteSpace=wrap;" vertex="1" parent="C8jW-1V1t6mfTePuLyIO-92">
          <mxGeometry x="60" width="120" height="30" as="geometry">
            <mxRectangle width="120" height="30" as="alternateBounds" />
          </mxGeometry>
        </mxCell>
        <mxCell id="C8jW-1V1t6mfTePuLyIO-89" style="shape=tableRow;horizontal=0;startSize=0;swimlaneHead=0;swimlaneBody=0;fillColor=none;collapsible=0;dropTarget=0;points=[[0,0.5],[1,0.5]];portConstraint=eastwest;top=0;left=0;right=0;bottom=0;html=1;" vertex="1" parent="C8jW-1V1t6mfTePuLyIO-64">
          <mxGeometry y="210" width="180" height="30" as="geometry" />
        </mxCell>
        <mxCell id="C8jW-1V1t6mfTePuLyIO-90" style="shape=partialRectangle;connectable=0;fillColor=none;top=0;left=0;bottom=0;right=0;editable=1;overflow=hidden;html=1;whiteSpace=wrap;" vertex="1" parent="C8jW-1V1t6mfTePuLyIO-89">
          <mxGeometry width="60" height="30" as="geometry">
            <mxRectangle width="60" height="30" as="alternateBounds" />
          </mxGeometry>
        </mxCell>
        <mxCell id="C8jW-1V1t6mfTePuLyIO-91" value="price" style="shape=partialRectangle;connectable=0;fillColor=none;top=0;left=0;bottom=0;right=0;align=left;spacingLeft=6;overflow=hidden;html=1;whiteSpace=wrap;" vertex="1" parent="C8jW-1V1t6mfTePuLyIO-89">
          <mxGeometry x="60" width="120" height="30" as="geometry">
            <mxRectangle width="120" height="30" as="alternateBounds" />
          </mxGeometry>
        </mxCell>
        <mxCell id="C8jW-1V1t6mfTePuLyIO-86" style="shape=tableRow;horizontal=0;startSize=0;swimlaneHead=0;swimlaneBody=0;fillColor=none;collapsible=0;dropTarget=0;points=[[0,0.5],[1,0.5]];portConstraint=eastwest;top=0;left=0;right=0;bottom=0;html=1;" vertex="1" parent="C8jW-1V1t6mfTePuLyIO-64">
          <mxGeometry y="240" width="180" height="30" as="geometry" />
        </mxCell>
        <mxCell id="C8jW-1V1t6mfTePuLyIO-87" style="shape=partialRectangle;connectable=0;fillColor=none;top=0;left=0;bottom=0;right=0;editable=1;overflow=hidden;html=1;whiteSpace=wrap;" vertex="1" parent="C8jW-1V1t6mfTePuLyIO-86">
          <mxGeometry width="60" height="30" as="geometry">
            <mxRectangle width="60" height="30" as="alternateBounds" />
          </mxGeometry>
        </mxCell>
        <mxCell id="C8jW-1V1t6mfTePuLyIO-88" value="in_stock" style="shape=partialRectangle;connectable=0;fillColor=none;top=0;left=0;bottom=0;right=0;align=left;spacingLeft=6;overflow=hidden;html=1;whiteSpace=wrap;" vertex="1" parent="C8jW-1V1t6mfTePuLyIO-86">
          <mxGeometry x="60" width="120" height="30" as="geometry">
            <mxRectangle width="120" height="30" as="alternateBounds" />
          </mxGeometry>
        </mxCell>
        <mxCell id="C8jW-1V1t6mfTePuLyIO-83" style="shape=tableRow;horizontal=0;startSize=0;swimlaneHead=0;swimlaneBody=0;fillColor=none;collapsible=0;dropTarget=0;points=[[0,0.5],[1,0.5]];portConstraint=eastwest;top=0;left=0;right=0;bottom=0;html=1;" vertex="1" parent="C8jW-1V1t6mfTePuLyIO-64">
          <mxGeometry y="270" width="180" height="30" as="geometry" />
        </mxCell>
        <mxCell id="C8jW-1V1t6mfTePuLyIO-84" style="shape=partialRectangle;connectable=0;fillColor=none;top=0;left=0;bottom=0;right=0;editable=1;overflow=hidden;html=1;whiteSpace=wrap;" vertex="1" parent="C8jW-1V1t6mfTePuLyIO-83">
          <mxGeometry width="60" height="30" as="geometry">
            <mxRectangle width="60" height="30" as="alternateBounds" />
          </mxGeometry>
        </mxCell>
        <mxCell id="C8jW-1V1t6mfTePuLyIO-85" value="image" style="shape=partialRectangle;connectable=0;fillColor=none;top=0;left=0;bottom=0;right=0;align=left;spacingLeft=6;overflow=hidden;html=1;whiteSpace=wrap;" vertex="1" parent="C8jW-1V1t6mfTePuLyIO-83">
          <mxGeometry x="60" width="120" height="30" as="geometry">
            <mxRectangle width="120" height="30" as="alternateBounds" />
          </mxGeometry>
        </mxCell>
        <mxCell id="C8jW-1V1t6mfTePuLyIO-80" style="shape=tableRow;horizontal=0;startSize=0;swimlaneHead=0;swimlaneBody=0;fillColor=none;collapsible=0;dropTarget=0;points=[[0,0.5],[1,0.5]];portConstraint=eastwest;top=0;left=0;right=0;bottom=0;html=1;" vertex="1" parent="C8jW-1V1t6mfTePuLyIO-64">
          <mxGeometry y="300" width="180" height="30" as="geometry" />
        </mxCell>
        <mxCell id="C8jW-1V1t6mfTePuLyIO-81" style="shape=partialRectangle;connectable=0;fillColor=none;top=0;left=0;bottom=0;right=0;editable=1;overflow=hidden;html=1;whiteSpace=wrap;" vertex="1" parent="C8jW-1V1t6mfTePuLyIO-80">
          <mxGeometry width="60" height="30" as="geometry">
            <mxRectangle width="60" height="30" as="alternateBounds" />
          </mxGeometry>
        </mxCell>
        <mxCell id="C8jW-1V1t6mfTePuLyIO-82" value="status" style="shape=partialRectangle;connectable=0;fillColor=none;top=0;left=0;bottom=0;right=0;align=left;spacingLeft=6;overflow=hidden;html=1;whiteSpace=wrap;" vertex="1" parent="C8jW-1V1t6mfTePuLyIO-80">
          <mxGeometry x="60" width="120" height="30" as="geometry">
            <mxRectangle width="120" height="30" as="alternateBounds" />
          </mxGeometry>
        </mxCell>
      </root>
    </mxGraphModel>
  </diagram>
</mxfile>
